<?xml version="1.0" standalone="no"?>
<!DOCTYPE svg PUBLIC "-//W3C//DTD SVG 20010904//EN"
 "http://www.w3.org/TR/2001/REC-SVG-20010904/DTD/svg10.dtd">
<svg version="1.0" xmlns="http://www.w3.org/2000/svg"
 width="225.000000pt" height="225.000000pt" viewBox="0 0 225.000000 225.000000"
 preserveAspectRatio="xMidYMid meet">
<metadata>
Created by potrace 1.14, written by Peter Selinger 2001-2017
</metadata>
<g transform="translate(0.000000,225.000000) scale(0.100000,-0.100000)"
fill="#000000" stroke="none">
<path d="M1194 2003 c-21 -2 -34 -11 -37 -23 -3 -11 -29 -31 -61 -47 l-56 -27
0 -176 0 -175 -143 -2 c-78 -1 -167 -8 -197 -15 l-55 -14 1 -44 c1 -40 24
-231 42 -345 3 -22 6 -53 6 -70 l1 -30 -130 -3 c-72 -1 -155 1 -185 6 -41 7
-13 8 105 6 158 -2 159 -2 40 5 -141 9 -275 37 -275 58 0 8 -4 11 -10 8 -23
-14 -7 -35 38 -50 35 -11 38 -14 13 -10 -42 6 -83 26 -89 42 -4 14 84 57 99
47 5 -3 9 0 9 5 0 16 -30 13 -79 -9 l-44 -20 6 -56 c8 -74 49 -156 111 -221
47 -48 51 -56 52 -103 1 -51 26 -96 47 -83 5 3 7 2 4 -4 -9 -15 61 -78 86 -78
16 0 21 -5 20 -21 -2 -14 15 -36 52 -68 l54 -46 66 16 c44 11 65 21 65 31 0
10 7 14 19 10 14 -3 18 -1 14 9 -3 8 -9 14 -13 14 -5 0 -7 8 -5 18 2 9 4 20 4
24 1 3 14 9 31 13 32 7 51 25 26 25 -8 0 -21 2 -28 5 -9 3 -20 -5 -28 -19 -7
-14 -17 -23 -22 -20 -5 4 -1 16 10 28 11 11 17 28 14 36 -4 12 -1 11 15 -3 23
-20 40 -23 24 -3 -7 8 -13 30 -14 50 -1 20 -6 35 -11 33 -14 -5 -16 -37 -3
-38 7 0 1 -5 -12 -10 -28 -11 -40 -4 -23 13 15 15 15 28 1 28 -5 0 -7 -5 -4
-11 4 -6 1 -10 -6 -8 -8 1 -23 1 -34 0 -16 -1 -17 -3 -5 -10 8 -6 17 -8 20 -6
3 2 13 -10 22 -26 10 -16 13 -31 7 -34 -5 -4 -12 0 -15 8 -3 8 -14 17 -25 20
-11 3 -18 11 -17 17 2 7 -3 15 -11 18 -9 3 -11 0 -6 -8 5 -8 1 -11 -11 -10
-41 5 -47 1 -41 -29 4 -18 0 -35 -9 -47 -14 -17 -15 -15 -11 29 3 29 1 47 -6
47 -18 0 0 11 25 15 42 8 108 34 165 64 38 21 53 25 53 15 0 -8 -5 -13 -11
-11 -6 1 -13 -3 -16 -9 -2 -7 5 -10 21 -7 22 5 24 9 19 37 -7 39 -9 40 -60 54
l-41 12 -11 68 c-34 215 -82 574 -77 579 3 3 25 0 50 -6 64 -16 329 -14 395 3
l53 14 -6 -52 c-16 -139 -46 -396 -52 -433 -3 -27 -1 -43 5 -43 6 0 11 10 11
23 0 15 3 18 9 9 6 -10 25 -5 87 23 140 65 382 155 414 155 3 0 15 -8 26 -17
10 -10 42 -36 69 -58 28 -22 52 -43 53 -47 17 -39 22 61 22 457 l0 453 -77 6
c-43 3 -135 9 -206 12 -92 5 -129 10 -135 20 -8 15 -130 26 -188 17z m168 -75
c-12 -12 -163 -15 -180 -4 -7 4 -12 16 -12 26 0 17 9 20 98 22 88 3 97 1 100
-16 2 -10 -1 -23 -6 -28z m-154 -55 c-15 -2 -42 -2 -60 0 -18 2 -6 4 27 4 33
0 48 -2 33 -4z m160 -10 c-10 -2 -28 -2 -40 0 -13 2 -5 4 17 4 22 1 32 -1 23
-4z m130 -10 c-16 -2 -40 -2 -55 0 -16 2 -3 4 27 4 30 0 43 -2 28 -4z m-441
-65 c-2 -13 -4 -3 -4 22 0 25 2 35 4 23 2 -13 2 -33 0 -45z m591 55 c-16 -2
-40 -2 -55 0 -16 2 -3 4 27 4 30 0 43 -2 28 -4z m-421 -9 c-3 -3 -12 -4 -19
-1 -8 3 -5 6 6 6 11 1 17 -2 13 -5z m68 -4 c3 -5 1 -10 -4 -10 -6 0 -11 5 -11
10 0 6 2 10 4 10 3 0 8 -4 11 -10z m-228 -132 c-3 -8 -6 -5 -6 6 -1 11 2 17 5
13 3 -3 4 -12 1 -19z m3 -124 c-8 -27 -8 -25 -7 14 0 27 3 38 8 29 5 -7 4 -27
-1 -43z m53 -53 c20 -7 37 -16 37 -20 0 -15 -93 -33 -200 -38 -159 -8 -344 22
-298 48 51 28 378 35 461 10z m51 10 c4 -5 -3 -7 -14 -4 -23 6 -26 13 -6 13 8
0 17 -4 20 -9z m33 -96 c0 -17 -13 -20 -21 -6 -4 5 0 12 6 14 7 3 13 6 14 6 0
1 1 -6 1 -14z m243 -32 c0 -7 -4 -13 -10 -13 -5 0 -7 -8 -4 -17 5 -15 4 -15
-4 -3 -8 10 -7 18 1 28 9 11 7 17 -6 27 -9 6 -14 15 -10 18 7 8 32 -23 33 -40z
m68 22 c-3 -3 -9 2 -12 12 -6 14 -5 15 5 6 7 -7 10 -15 7 -18z m52 10 c7 -9 8
-15 2 -15 -5 0 -12 7 -16 15 -3 8 -4 15 -2 15 2 0 9 -7 16 -15z m-110 -84
c-12 -38 -19 -75 -15 -81 3 -5 1 -10 -4 -10 -14 0 -14 28 -1 66 5 16 14 49 21
74 6 25 14 40 16 33 2 -6 -6 -43 -17 -82z m76 31 c-19 -68 -39 -122 -47 -122
-4 0 4 30 17 68 13 37 24 77 24 90 0 13 4 21 9 18 5 -4 4 -26 -3 -54z m-216
44 c0 -2 -9 -6 -20 -9 -11 -3 -18 -1 -14 4 5 9 34 13 34 5z m-127 -38 c-9 -15
-23 -8 -23 12 0 17 2 19 14 8 8 -7 12 -16 9 -20z m62 5 c-13 -47 -23 -108 -20
-111 2 -2 15 18 29 45 13 26 32 57 41 68 12 14 11 10 -3 -15 -10 -19 -30 -54
-42 -77 -13 -24 -27 -43 -32 -43 -12 0 -10 52 6 103 7 25 11 48 8 51 -3 4 0 6
7 6 9 0 11 -8 6 -27z m70 -48 c-16 -57 -16 -68 -4 -76 11 -7 11 -9 -3 -9 -23
0 -23 36 -1 106 23 75 29 59 8 -21z m43 55 c-7 -10 -14 -17 -17 -15 -4 4 18
35 25 35 2 0 -1 -9 -8 -20z m52 10 c0 -5 -7 -10 -16 -10 -8 0 -12 5 -9 10 3 6
10 10 16 10 5 0 9 -4 9 -10z m-226 -67 c-19 -31 -34 -61 -34 -67 0 -5 -3 -7
-6 -4 -10 10 56 128 72 128 1 0 -13 -26 -32 -57z m96 53 c0 -3 -4 -8 -10 -11
-5 -3 -10 -1 -10 4 0 6 5 11 10 11 6 0 10 -2 10 -4z m203 -40 c-10 -13 -20
-22 -22 -20 -4 4 29 44 36 44 2 0 -4 -11 -14 -24z m-103 -36 c-7 -16 -10 -36
-6 -45 3 -8 1 -15 -4 -15 -18 0 -20 20 -6 55 8 19 13 35 10 35 -3 0 -2 5 2 12
14 22 17 -11 4 -42z m177 14 c-32 -27 -32 -31 -10 -56 9 -10 11 -18 5 -18 -6
0 -18 10 -27 23 -15 21 -14 23 10 42 14 12 25 26 25 33 0 8 5 10 12 6 8 -5 3
-15 -15 -30z m90 -26 c-2 -13 -4 -3 -4 22 0 25 2 35 4 23 2 -13 2 -33 0 -45z
m-177 -18 c0 -5 -2 -10 -4 -10 -3 0 -8 5 -11 10 -3 6 -1 10 4 10 6 0 11 -4 11
-10z m-130 -42 c54 0 64 -9 11 -10 -17 -1 -28 -5 -25 -10 3 -5 -11 1 -31 12
-41 23 -49 25 -39 8 4 -7 3 -8 -4 -4 -6 4 -9 13 -5 22 5 13 8 13 23 -1 11 -10
37 -16 70 -17z m194 7 c11 -8 15 -15 9 -15 -7 0 -15 5 -18 10 -4 6 -11 8 -16
4 -6 -4 -6 -11 1 -19 10 -12 7 -12 -13 -2 -22 10 -23 13 -8 24 20 16 22 16 45
-2z m49 -16 c-8 -8 -13 -7 -18 2 -5 8 -4 10 3 5 7 -4 12 -2 12 5 0 7 3 9 7 6
4 -4 2 -12 -4 -18z m-430 -14 c-7 -21 -13 -19 -13 6 0 11 4 18 10 14 5 -3 7
-12 3 -20z m84 0 c0 -8 -4 -15 -9 -15 -10 0 -11 14 -1 23 9 10 10 9 10 -8z
m180 2 c0 -15 -32 -16 -44 -2 -5 4 -3 6 2 2 6 -3 17 -2 25 4 8 5 15 9 16 9 0
0 1 -6 1 -13z m193 -47 c0 -5 -5 -10 -11 -10 -5 0 -7 5 -4 10 3 6 8 10 11 10
2 0 4 -4 4 -10z m-473 -62 c-2 -13 -4 -5 -4 17 -1 22 1 32 4 23 2 -10 2 -28 0
-40z m-3 -83 c-4 -8 -8 -15 -10 -15 -2 0 -4 7 -4 15 0 8 4 15 10 15 5 0 7 -7
4 -15z m-607 -49 l172 -1 10 -61 c18 -103 18 -103 -51 -84 -44 13 -324 70
-340 70 -7 0 -8 -14 -5 -37 l6 -38 -30 35 c-33 39 -79 122 -79 143 0 11 14 10
73 -6 56 -15 109 -19 244 -21z m-102 -111 c118 -21 213 -43 296 -66 41 -11 80
-21 87 -21 20 -2 14 -13 -18 -31 -17 -10 -35 -15 -40 -12 -6 4 -9 1 -8 -7 2
-8 -26 -23 -80 -40 l-84 -28 -64 57 c-54 48 -62 59 -51 72 10 14 10 14 -3 4
-13 -10 -25 -4 -69 37 -28 28 -51 50 -49 50 2 0 39 -7 83 -15z m-74 -48 c-10
-9 -11 -8 -5 6 3 10 9 15 12 12 3 -3 0 -11 -7 -18z m108 -80 c-2 -3 -15 10
-28 27 l-24 31 28 -27 c16 -15 27 -29 24 -31z m86 -77 c10 -11 16 -20 13 -20
-3 0 -13 9 -23 20 -10 11 -16 20 -13 20 3 0 13 -9 23 -20z m-40 -50 c3 -6 -1
-7 -9 -4 -18 7 -21 14 -7 14 6 0 13 -4 16 -10z m10 -30 c3 -6 -1 -7 -9 -4 -18
7 -21 14 -7 14 6 0 13 -4 16 -10z m181 -16 c-5 -12 -2 -15 9 -10 11 4 19 -3
26 -21 7 -19 7 -29 0 -31 -6 -2 -9 -8 -5 -13 6 -10 -45 -33 -54 -24 -3 3 0 5
6 5 7 0 12 9 12 20 0 12 6 20 13 18 14 -3 17 3 17 30 0 13 -2 14 -9 4 -6 -10
-10 -10 -21 2 -7 9 -17 13 -23 9 -6 -3 -7 -1 -3 5 5 8 0 12 -13 12 -30 0 -26
-27 7 -38 l27 -10 -28 -1 c-16 -1 -26 -5 -22 -11 3 -5 2 -10 -3 -10 -5 0 -9
-7 -9 -15 0 -8 6 -15 13 -15 7 0 16 -5 20 -11 4 -8 0 -9 -15 -4 -14 4 -21 2
-22 -7 -1 -7 -5 7 -10 32 -6 31 -5 53 4 72 10 24 18 28 51 28 31 0 37 -3 32
-16z m-126 -64 c0 -5 -2 -10 -4 -10 -3 0 -8 5 -11 10 -3 6 -1 10 4 10 6 0 11
-4 11 -10z"/>
<path d="M430 850 c-12 -7 -12 -12 -2 -22 9 -9 17 -10 30 -2 9 6 16 15 15 20
-3 13 -26 15 -43 4z"/>
<path d="M690 786 c0 -18 39 -31 52 -18 15 15 0 32 -28 32 -14 0 -24 -6 -24
-14z"/>
<path d="M570 750 c0 -11 12 -26 29 -35 28 -14 30 -14 36 6 9 26 -11 49 -41
49 -17 0 -24 -6 -24 -20z"/>
<path d="M627 543 c-4 -3 -7 -13 -7 -22 1 -13 3 -13 11 2 11 19 8 33 -4 20z"/>
<path d="M710 500 c0 -5 5 -10 11 -10 5 0 7 5 4 10 -3 6 -8 10 -11 10 -2 0 -4
-4 -4 -10z"/>
<path d="M452 1310 c0 -14 2 -19 5 -12 2 6 2 18 0 25 -3 6 -5 1 -5 -13z"/>
<path d="M498 1323 c7 -3 16 -2 19 1 4 3 -2 6 -13 5 -11 0 -14 -3 -6 -6z"/>
<path d="M570 1300 c-8 -5 -33 -10 -55 -11 -36 -2 -37 -3 -8 -6 17 -2 51 3 75
11 24 8 34 15 23 15 -11 1 -27 -4 -35 -9z"/>
<path d="M420 1262 c8 -5 26 -13 40 -16 17 -5 20 -4 10 2 -8 5 -26 13 -40 16
-17 5 -20 4 -10 -2z"/>
<path d="M605 1253 c-16 -3 -34 -9 -40 -14 -11 -11 52 -1 75 12 16 9 14 9 -35
2z"/>
<path d="M347 1213 c-3 -5 9 -9 26 -10 26 -1 28 0 12 7 -26 11 -33 12 -38 3z"/>
<path d="M455 1190 c31 -8 112 -13 104 -6 -2 2 -33 6 -69 9 -41 3 -54 2 -35
-3z"/>
<path d="M320 1161 c0 -16 124 -31 241 -29 l114 1 -150 7 c-82 4 -162 12 -177
18 -16 7 -28 8 -28 3z"/>
<path d="M1850 925 c-25 -13 -90 -45 -145 -71 -55 -26 -102 -50 -105 -53 -3
-3 -12 -7 -20 -9 -8 -2 -57 -24 -108 -48 -52 -24 -98 -44 -103 -44 -13 0 -11
-18 4 -23 10 -4 10 -6 0 -6 -8 -1 -13 -17 -14 -43 0 -24 -4 -65 -9 -93 -4 -27
-6 -52 -4 -54 2 -3 22 5 44 17 38 20 70 21 70 1 0 -25 119 -56 151 -38 22 11
23 4 8 -40 -16 -46 2 -101 40 -124 97 -57 249 35 255 156 2 35 6 42 28 48 47
12 87 42 104 77 8 18 13 38 10 45 -2 7 -5 4 -5 -5 -1 -10 -6 -18 -11 -18 -6 0
-15 -11 -20 -24 -7 -20 -18 -26 -62 -31 -60 -8 -77 -5 -96 13 -7 6 -22 12 -32
12 -13 0 -20 11 -26 38 -10 49 -7 64 17 84 10 9 19 23 19 32 0 9 6 13 15 10
19 -8 22 3 30 100 5 70 4 78 -10 72 -9 -3 -13 -2 -10 4 3 6 13 10 21 10 8 0
14 7 14 15 0 8 -1 15 -2 14 -2 0 -23 -11 -48 -24z m0 -45 c0 -11 -2 -20 -4
-20 -2 0 -6 9 -9 20 -3 11 -1 20 4 20 5 0 9 -9 9 -20z m-134 -194 c34 -34 35
-41 22 -96 -5 -21 -24 -40 -42 -40 -9 0 -16 -4 -16 -9 0 -5 -20 -14 -46 -19
-59 -13 -114 3 -115 32 0 12 -3 15 -6 9 -2 -7 -9 -13 -15 -13 -13 0 -4 90 10
99 5 3 11 15 13 25 5 22 63 43 123 45 31 1 44 -5 72 -33z m-276 14 c0 -5 -5
-10 -11 -10 -5 0 -7 5 -4 10 3 6 8 10 11 10 2 0 4 -4 4 -10z m406 -164 c7 -8
18 -16 24 -18 6 -2 13 -21 15 -43 4 -30 3 -35 -4 -20 -9 19 -10 19 -10 -2 -2
-40 -22 -70 -61 -87 -21 -9 -40 -24 -42 -32 -3 -13 -7 -13 -30 5 -15 12 -32
20 -38 19 -5 -2 -19 16 -30 40 -11 23 -15 40 -10 37 5 -3 12 10 16 30 3 19 10
35 15 35 4 0 20 11 35 25 31 29 96 34 120 11z m-179 -168 c-3 -8 -6 -5 -6 6
-1 11 2 17 5 13 3 -3 4 -12 1 -19z"/>
<path d="M2016 683 c6 -4 14 -15 17 -23 5 -11 6 -9 4 4 -1 11 -9 21 -17 23
-10 3 -11 2 -4 -4z"/>
<path d="M1240 494 c-174 -50 -200 -60 -195 -71 2 -7 1 -12 -3 -10 -4 1 -7 -2
-7 -8 0 -5 6 -9 15 -7 12 2 174 50 226 67 12 4 27 46 16 44 -4 -1 -27 -7 -52
-15z"/>
<path d="M1250 353 c0 -13 -3 -14 -8 -6 -9 14 -14 13 -117 -17 -38 -11 -82
-23 -96 -26 -19 -4 -26 -12 -26 -29 l0 -22 106 34 c58 18 118 36 134 39 18 4
27 13 27 25 0 11 -4 19 -10 19 -5 0 -10 -8 -10 -17z"/>
</g>
</svg>
